<svg xmlns="http://www.w3.org/2000/svg" viewBox="0 0 100 100" fill="none">
  <defs>
    <radialGradient id="glow" cx="50%" cy="50%" r="50%">
      <stop offset="0%" stop-color="#e4a796" stop-opacity="0.8"/>
      <stop offset="100%" stop-color="#230b17" stop-opacity="0"/>
    </radialGradient>
  </defs>
  <rect width="100" height="100" rx="24" fill="#060608"/>
  <circle cx="50" cy="50" r="40" fill="url(#glow)"/>
  <!-- Sleek minimal keyhole / eye of mystery -->
  <path d="M50 32C41.7 32 35 38.7 35 47C35 52.8 38.3 57.8 43 60.3V68C43 69.1 43.9 70 45 70H55C56.1 70 57 69.1 57 68V60.3C61.7 57.8 65 52.8 65 47C65 38.7 58.3 32 50 32ZM50 43C52.2 43 54 44.8 54 47C54 49.2 52.2 51 50 51C47.8 51 46 49.2 46 47C46 44.8 47.8 43 50 43Z" fill="#e4a796"/>
  <circle cx="50" cy="47" r="2.5" fill="#ffffff"/>
</svg>